<?xml version="1.0" encoding="UTF-8" standalone="no"?>
<!-- Created with Inkscape (http://www.inkscape.org/) -->

<svg
   xmlns:dc="http://purl.org/dc/elements/1.1/"
   xmlns:cc="http://creativecommons.org/ns#"
   xmlns:rdf="http://www.w3.org/1999/02/22-rdf-syntax-ns#"
   xmlns:svg="http://www.w3.org/2000/svg"
   xmlns="http://www.w3.org/2000/svg"
   xmlns:sodipodi="http://sodipodi.sourceforge.net/DTD/sodipodi-0.dtd"
   xmlns:inkscape="http://www.inkscape.org/namespaces/inkscape"
   width="55.281918mm"
   height="64.419205mm"
   viewBox="0 0 55.281918 64.419204"
   version="1.1"
   id="svg1323"
   inkscape:version="0.92.3 (2405546, 2018-03-11)"
   sodipodi:docname="evolve_green.svg">
  <defs
     id="defs1317" />
  <sodipodi:namedview
     id="base"
     pagecolor="#ffffff"
     bordercolor="#666666"
     borderopacity="1.0"
     inkscape:pageopacity="0.0"
     inkscape:pageshadow="2"
     inkscape:zoom="0.35"
     inkscape:cx="297.96398"
     inkscape:cy="208.21312"
     inkscape:document-units="mm"
     inkscape:current-layer="layer1"
     showgrid="false"
     inkscape:window-width="1920"
     inkscape:window-height="1017"
     inkscape:window-x="1358"
     inkscape:window-y="-8"
     inkscape:window-maximized="1" />
  <metadata
     id="metadata1320">
    <rdf:RDF>
      <cc:Work
         rdf:about="">
        <dc:format>image/svg+xml</dc:format>
        <dc:type
           rdf:resource="http://purl.org/dc/dcmitype/StillImage" />
        <dc:title></dc:title>
      </cc:Work>
    </rdf:RDF>
  </metadata>
  <g
     inkscape:label="Layer 1"
     inkscape:groupmode="layer"
     id="layer1"
     transform="translate(95.845233,-139.50385)">
    <path
       inkscape:connector-curvature="0"
       id="path1237"
       d="m -93.313837,203.82132 c -0.91235,-0.23898 -1.75381,-0.92143 -2.16548,-1.75629 -0.39582,-0.8027 -0.37488,-0.30276 -0.35929,-8.57613 l 0.0139,-7.3898 0.16306,-0.42286 c 0.0897,-0.23256 0.24834,-0.55134 0.35258,-0.70839 0.27046,-0.40746 0.88331,-0.96065 1.28131,-1.15659 0.34922,-0.17192 0.7779,-0.31922 0.91195,-0.31335 0.0426,0.002 -0.0659,0.0457 -0.24099,0.0974 -0.3923,0.11587 -0.89624,0.37984 -1.05737,0.55388 -0.1119,0.12085 -0.0939,0.11687 0.24983,-0.0552 0.20373,-0.10199 0.54041,-0.23723 0.74817,-0.30054 0.37487,-0.11424 0.40897,-0.11525 4.46776,-0.13278 l 4.09001,-0.0176 -0.65875,-0.49672 c -1.19542,-0.90137 -1.73133,-1.36413 -2.70169,-2.33282 -1.22083,-1.21874 -1.82283,-1.94675 -2.72056,-3.29004 -2.19935,-3.29089 -3.76618,-7.68704 -4.27198,-11.98615 -0.10931,-0.92905 -0.15059,-3.11248 -0.0766,-4.05044 0.31888,-4.04161 1.68205,-7.69387 4.08281,-10.93876 2.65089,-3.58298 6.63425,-6.39173 11.8144,-8.3306 2.11553,-0.79181 4.90812,-1.5842 7.17211,-2.03506 6.19009,-1.23273 10.84941,-0.80074 15.27872,1.41654 2.64177,1.32245 4.97992,3.29836 6.86525,5.80164 2.04912,2.72076 3.65037,6.07968 5.11945,10.73899 0.38759,1.22926 0.42736,1.39086 0.35063,1.42472 -0.0476,0.021 -7.26124,2.28148 -16.03031,5.02328 -8.76907,2.7418 -15.95202,4.99285 -15.96211,5.00235 -0.0336,0.0316 0.70388,1.48697 1.00553,1.98429 1.06163,1.75032 2.13137,2.7892 3.65942,3.55385 1.73838,0.8699 3.60063,1.04343 5.6174,0.52342 2.0594,-0.53099 4.02356,-1.81148 5.11821,-3.33668 0.42563,-0.59305 1.07627,-1.84161 1.38198,-2.65201 l 0.0885,-0.2345 8.03342,-1.72118 c 4.41838,-0.94664 8.06407,-1.73236 8.10155,-1.74604 0.0914,-0.0333 0.0573,0.1417 -0.259,1.33052 -1.3229,4.9725 -3.563,8.78264 -6.74906,11.4794 -1.81388,1.5353 -4.59165,3.16337 -7.32691,4.29434 -0.24122,0.0997 -0.55468,0.23461 -0.69657,0.29971 -0.1419,0.0651 -0.33926,0.14962 -0.43858,0.18783 -0.1531,0.0589 1.02541,0.0736 7.73969,0.0968 7.90533,0.0273 7.92106,0.0276 8.33306,0.13856 0.22703,0.0611 0.50566,0.14825 0.61918,0.19356 0.1917,0.0765 0.19904,0.0763 0.10319,-0.002 -0.0567,-0.0466 -0.24251,-0.15176 -0.41278,-0.2338 -0.17027,-0.082 -0.27476,-0.1491 -0.23219,-0.14903 0.13592,1.9e-4 0.74822,0.33514 1.08147,0.59157 0.53945,0.4151 0.9691,1.08591 1.1742,1.83333 0.0863,0.31452 0.092,0.79124 0.092,7.66229 0,6.83276 -0.006,7.34953 -0.0908,7.6623 -0.34198,1.26286 -1.30433,2.2138 -2.53375,2.50373 -0.2739,0.0646 -3.64353,0.0744 -25.03192,0.0726 -24.21265,-0.002 -24.72311,-0.004 -25.09405,-0.10126 z m 7.61254,-5.5659 c 0.69385,-0.17282 1.15413,-0.43137 1.62844,-0.91477 0.31816,-0.32426 0.73626,-0.91259 0.66545,-0.93639 -0.0236,-0.008 -0.62134,-0.0693 -1.3283,-0.13643 l -1.28537,-0.12201 -0.24619,0.22982 c -0.13539,0.1264 -0.33276,0.2666 -0.43858,0.31157 -0.24821,0.10546 -0.85463,0.10732 -1.09911,0.003 -0.40935,-0.17406 -0.70193,-0.57191 -0.79722,-1.08409 l -0.0359,-0.19303 2.70165,-0.0134 2.70165,-0.0134 -0.005,-0.56758 c -0.0197,-2.2971 -1.24841,-3.61741 -3.52286,-3.7854 -1.11574,-0.0824 -1.95856,0.0458 -2.74143,0.41716 -0.5828,0.27641 -1.22025,0.9034 -1.50971,1.48492 -0.29876,0.6002 -0.37124,0.94656 -0.37251,1.78013 -0.002,1.00122 0.18606,1.63234 0.68654,2.30982 0.55632,0.75305 1.27113,1.15446 2.36094,1.32579 0.53302,0.0838 2.15182,0.0248 2.63739,-0.0962 z m -2.92548,-4.2564 c 0,-0.0396 0.0457,-0.21953 0.10167,-0.39989 0.19307,-0.62275 0.61374,-0.94254 1.23988,-0.94254 0.72465,0 1.08195,0.3524 1.26401,1.2467 l 0.0341,0.16769 h -1.31984 c -1.0945,0 -1.31985,-0.0123 -1.31985,-0.072 z m 19.27183,4.2568 c 0.70518,-0.18451 1.22871,-0.47822 1.70336,-0.95564 0.7284,-0.73263 1.02778,-1.49319 1.02743,-2.61003 -2.5e-4,-0.75982 -0.0793,-1.11609 -0.38742,-1.74462 -0.39028,-0.79626 -1.22477,-1.47962 -2.11117,-1.72886 -0.7595,-0.21356 -1.91333,-0.26541 -2.61166,-0.11736 -1.93466,0.41017 -3.10138,1.90777 -2.99772,3.8479 0.0948,1.77441 1.29798,3.06899 3.16671,3.40723 0.44493,0.0805 1.74795,0.0224 2.21047,-0.0986 z m -1.80593,-1.80617 c -0.45569,-0.21145 -0.71451,-0.62649 -0.80949,-1.29815 -0.10058,-0.7112 0.0562,-1.44295 0.39504,-1.84385 0.44713,-0.52903 1.36214,-0.52903 1.80927,0 0.27514,0.32552 0.35115,0.57992 0.37505,1.2552 0.0311,0.87783 -0.10452,1.35671 -0.47879,1.69104 -0.32559,0.29083 -0.89884,0.37775 -1.29108,0.19576 z m 23.69365,1.80577 c 0.69386,-0.17282 1.15413,-0.43137 1.62845,-0.91477 0.31816,-0.32426 0.73626,-0.91259 0.66544,-0.93639 -0.0236,-0.008 -0.62134,-0.0693 -1.32829,-0.13643 l -1.28538,-0.12201 -0.24618,0.22982 c -0.1354,0.1264 -0.33276,0.2666 -0.43859,0.31157 -0.24821,0.10546 -0.85462,0.10732 -1.09911,0.003 -0.40935,-0.17406 -0.70192,-0.57191 -0.79721,-1.08409 l -0.0359,-0.19303 2.70164,-0.0134 2.70165,-0.0134 -0.005,-0.56758 c -0.0197,-2.29711 -1.24842,-3.61742 -3.52286,-3.78541 -1.11574,-0.0824 -1.95856,0.0459 -2.74143,0.41715 -0.58279,0.27642 -1.22025,0.90341 -1.50971,1.48493 -0.29877,0.6002 -0.37125,0.94656 -0.37251,1.78012 -0.002,1.00123 0.18606,1.63235 0.68654,2.30982 0.55632,0.75306 1.27113,1.15447 2.36095,1.3258 0.533,0.0838 2.15182,0.0248 2.63738,-0.0961 z m -2.92547,-4.2564 c 0,-0.0396 0.0457,-0.21953 0.10166,-0.39989 0.19308,-0.62275 0.61375,-0.94254 1.23988,-0.94254 0.72466,0 1.08195,0.3524 1.26401,1.2467 l 0.0342,0.16769 h -1.31984 c -1.0945,0 -1.31986,-0.0123 -1.31986,-0.072 z m -25.92475,0.77325 c 0.80606,-1.89879 1.47925,-3.49549 1.49599,-3.54821 0.0292,-0.092 -0.0249,-0.0953 -1.34772,-0.0821 l -1.37815,0.0138 -0.6989,2.20503 c -0.38439,1.21277 -0.7071,2.19683 -0.71713,2.1868 -0.0152,-0.0152 -0.40846,-1.29148 -1.22212,-3.96615 l -0.13735,-0.45148 h -1.38843 c -0.76365,0 -1.39899,0.0174 -1.41187,0.0387 -0.0129,0.0213 0.62387,1.59438 1.415,3.49576 0.79113,1.90139 1.44987,3.48651 1.46386,3.5225 0.0198,0.0508 0.29722,0.0623 1.24335,0.0516 l 1.21791,-0.0138 z m 13.79923,-1.42452 v -4.90266 l -1.35445,0.0137 -1.35444,0.0137 -0.0132,4.88891 -0.0132,4.8889 h 1.36761 1.3676 z m 7.76871,1.42452 c 0.80606,-1.89879 1.47926,-3.49549 1.49599,-3.54821 0.0292,-0.092 -0.0249,-0.0953 -1.34773,-0.0821 l -1.37814,0.0138 -0.6989,2.20503 c -0.38439,1.21277 -0.7071,2.19683 -0.71713,2.1868 -0.0152,-0.0152 -0.40846,-1.29148 -1.22212,-3.96615 l -0.13735,-0.45148 h -1.38844 c -0.76364,0 -1.39899,0.0174 -1.41187,0.0387 -0.0129,0.0213 0.62388,1.59437 1.41501,3.49576 0.79113,1.90139 1.44987,3.48651 1.46386,3.5225 0.0198,0.0508 0.29722,0.0623 1.24335,0.0516 l 1.21791,-0.0139 z m -16.27041,-35.32852 c 4.30598,-1.34524 7.82947,-2.46601 7.82999,-2.49061 5.3e-4,-0.0246 -0.19209,-0.44253 -0.428,-0.92876 -1.63978,-3.37963 -3.44136,-5.03799 -6.07241,-5.58965 -0.33116,-0.0694 -0.66605,-0.0913 -1.36734,-0.0891 -0.80216,0.002 -1.0177,0.0216 -1.58128,0.14059 -2.83714,0.59901 -4.82512,2.07656 -5.89481,4.38126 -0.61593,1.32707 -0.85232,2.59321 -0.7879,4.22014 0.0456,1.15248 0.29653,2.86292 0.414,2.82234 0.0323,-0.0111 3.58178,-1.12092 7.88775,-2.46617 z m 27.68323,24.06707 c 0.0355,-0.0143 0.0935,-0.0143 0.129,0 0.0355,0.0143 0.006,0.026 -0.0645,0.026 -0.0709,0 -0.1,-0.0117 -0.0645,-0.026 z m -49.56042,-0.0529 c 0.0493,-0.0129 0.14221,-0.0134 0.20639,-8e-4 0.0642,0.0124 0.0238,0.0229 -0.0897,0.0235 -0.11352,5.3e-4 -0.16603,-0.01 -0.1167,-0.0224 z m 49.12124,0 c 0.0493,-0.0129 0.14221,-0.0134 0.20639,-8e-4 0.0642,0.0124 0.0238,0.0229 -0.0897,0.0235 -0.11352,5.3e-4 -0.16603,-0.01 -0.1167,-0.0224 z"
       style="fill:#006871;fill-opacity:1;stroke-width:0.05159794" />
  </g>
</svg>
