<?xml version="1.0" encoding="UTF-8" standalone="no"?>
<!-- Created with Inkscape (http://www.inkscape.org/) -->

<svg
   xmlns:dc="http://purl.org/dc/elements/1.1/"
   xmlns:cc="http://creativecommons.org/ns#"
   xmlns:rdf="http://www.w3.org/1999/02/22-rdf-syntax-ns#"
   xmlns:svg="http://www.w3.org/2000/svg"
   xmlns="http://www.w3.org/2000/svg"
   xmlns:sodipodi="http://sodipodi.sourceforge.net/DTD/sodipodi-0.dtd"
   xmlns:inkscape="http://www.inkscape.org/namespaces/inkscape"
   width="57.746918mm"
   height="57.737629mm"
   viewBox="0 0 57.746918 57.737629"
   version="1.1"
   id="svg1961"
   inkscape:version="0.92.3 (2405546, 2018-03-11)"
   sodipodi:docname="mss_green.svg">
  <defs
     id="defs1955" />
  <sodipodi:namedview
     id="base"
     pagecolor="#ffffff"
     bordercolor="#666666"
     borderopacity="1.0"
     inkscape:pageopacity="0.0"
     inkscape:pageshadow="2"
     inkscape:zoom="0.35"
     inkscape:cx="-355.15768"
     inkscape:cy="109.11049"
     inkscape:document-units="mm"
     inkscape:current-layer="layer1"
     showgrid="false"
     inkscape:window-width="1920"
     inkscape:window-height="1017"
     inkscape:window-x="1358"
     inkscape:window-y="-8"
     inkscape:window-maximized="1" />
  <metadata
     id="metadata1958">
    <rdf:RDF>
      <cc:Work
         rdf:about="">
        <dc:format>image/svg+xml</dc:format>
        <dc:type
           rdf:resource="http://purl.org/dc/dcmitype/StillImage" />
        <dc:title></dc:title>
      </cc:Work>
    </rdf:RDF>
  </metadata>
  <g
     inkscape:label="Layer 1"
     inkscape:groupmode="layer"
     id="layer1"
     transform="translate(-76.959873,-119.96452)">
    <path
       inkscape:connector-curvature="0"
       id="path1239"
       d="m 95.660693,119.96452 a 32.440446,32.440443 0 0 0 -18.69182,19.25188 v 14.76656 l -0.009,0.007 v 9.20798 h 57.746077 v -30.61146 a 32.440446,32.440443 0 0 0 -0.009,-0.0119 v -12.60999 h -15.53274 z m 11.258007,21.54222 c 3.87854,0 5.91416,1.60429 6.10683,4.81266 l -3.38013,0.1508 c -0.12564,-1.42408 -1.05127,-2.13618 -2.77693,-2.13618 -1.76754,0 -2.65136,0.6869 -2.65136,2.06072 0,0.7288 0.28482,1.26917 0.85445,1.62101 0.56963,0.35183 1.50373,0.67844 2.80216,0.98001 2.21152,0.52775 3.70259,1.2691 4.47327,2.22407 0.77907,0.9466 1.1686,2.1697 1.1686,3.66917 0,1.82618 -0.65334,3.22936 -1.96014,4.20946 -1.29843,0.97173 -2.77278,1.45753 -4.42304,1.45753 -4.02933,0 -6.32887,-1.93089 -6.8985,-5.79267 l 3.34246,-0.33927 c 0.28481,2.19476 1.47853,3.29223 3.58115,3.29223 0.93822,0 1.67121,-0.25556 2.19896,-0.76655 0.53613,-0.511 0.8041,-1.1979 0.8041,-2.06073 0,-0.77906 -0.25125,-1.36122 -0.75387,-1.74656 -0.50262,-0.38534 -1.60414,-0.79161 -3.30467,-1.21883 -1.9267,-0.46074 -3.27124,-1.13092 -4.03354,-2.0105 -0.76231,-0.88796 -1.1435,-1.97276 -1.1435,-3.25444 0,-0.92984 0.23036,-1.79695 0.6911,-2.60114 0.46073,-0.80419 1.13927,-1.42827 2.03561,-1.87225 0.89633,-0.45236 1.98531,-0.67854 3.26699,-0.67854 z m 15.43042,0 c 3.87854,0 5.91416,1.60429 6.10684,4.81266 l -3.38013,0.1508 c -0.12566,-1.42408 -1.05128,-2.13618 -2.77692,-2.13618 -1.76755,0 -2.65138,0.6869 -2.65138,2.06072 0,0.7288 0.28482,1.26917 0.85445,1.62101 0.56964,0.35183 1.50374,0.67844 2.80218,0.98001 2.21152,0.52775 3.70257,1.2691 4.47326,2.22407 0.77905,0.9466 1.1686,2.1697 1.1686,3.66917 0,1.82618 -0.65346,3.22936 -1.96027,4.20946 -1.29843,0.97173 -2.77277,1.45753 -4.42305,1.45753 -4.02932,0 -6.32873,-1.93089 -6.89837,-5.79267 l 3.34234,-0.33927 c 0.28481,2.19476 1.47854,3.29223 3.58115,3.29223 0.93822,0 1.67121,-0.25556 2.19896,-0.76655 0.53613,-0.511 0.80424,-1.1979 0.80424,-2.06073 0,-0.77906 -0.25127,-1.36122 -0.75388,-1.74656 -0.50263,-0.38534 -1.60427,-0.79161 -3.3048,-1.21883 -1.9267,-0.46074 -3.27124,-1.13092 -4.03355,-2.0105 -0.7623,-0.88796 -1.14336,-1.97276 -1.14336,-3.25444 0,-0.92984 0.23036,-1.79695 0.69109,-2.60114 0.46073,-0.80419 1.13927,-1.42827 2.03561,-1.87225 0.89633,-0.45236 1.98533,-0.67854 3.26699,-0.67854 z m -37.244027,0.31416 h 3.19166 l 2.53823,4.78742 c 0.26806,0.49424 0.48588,0.96344 0.65342,1.40743 l 0.16336,-0.42729 c 0.067,-0.15916 0.39362,-0.79579 0.98001,-1.90992 l 2.04816,-3.85764 h 3.29224 v 18.42093 h -3.29224 V 149.2848 l 0.10058,-2.60101 -3.0283,5.65442 h -0.51518 l -3.04086,-5.65442 0.10058,2.60101 v 10.95703 h -3.19166 z m -8.1448,22.53442 v 13.34683 h 57.737497 v -9.96497 a 32.440446,32.440443 0 0 0 0.009,-0.0128 v -3.36906 z"
       style="fill:#006871;fill-opacity:1;stroke:none;stroke-width:5.1257844;stroke-linecap:round;stroke-linejoin:round;stroke-miterlimit:4;stroke-dasharray:none;stroke-opacity:1" />
  </g>
</svg>
