<?xml version="1.0" encoding="UTF-8" standalone="no"?>
<!-- Created with Inkscape (http://www.inkscape.org/) -->

<svg
   xmlns:dc="http://purl.org/dc/elements/1.1/"
   xmlns:cc="http://creativecommons.org/ns#"
   xmlns:rdf="http://www.w3.org/1999/02/22-rdf-syntax-ns#"
   xmlns:svg="http://www.w3.org/2000/svg"
   xmlns="http://www.w3.org/2000/svg"
   xmlns:sodipodi="http://sodipodi.sourceforge.net/DTD/sodipodi-0.dtd"
   xmlns:inkscape="http://www.inkscape.org/namespaces/inkscape"
   width="50.178261mm"
   height="38.364761mm"
   viewBox="0 0 50.17826 38.364761"
   version="1.1"
   id="svg1961"
   inkscape:version="0.92.3 (2405546, 2018-03-11)"
   sodipodi:docname="news_green.svg">
  <defs
     id="defs1955" />
  <sodipodi:namedview
     id="base"
     pagecolor="#ffffff"
     bordercolor="#666666"
     borderopacity="1.0"
     inkscape:pageopacity="0.0"
     inkscape:pageshadow="2"
     inkscape:zoom="2.8"
     inkscape:cx="58.912325"
     inkscape:cy="119.84031"
     inkscape:document-units="mm"
     inkscape:current-layer="layer1"
     showgrid="false"
     inkscape:window-width="1920"
     inkscape:window-height="1017"
     inkscape:window-x="1358"
     inkscape:window-y="-8"
     inkscape:window-maximized="1" />
  <metadata
     id="metadata1958">
    <rdf:RDF>
      <cc:Work
         rdf:about="">
        <dc:format>image/svg+xml</dc:format>
        <dc:type
           rdf:resource="http://purl.org/dc/dcmitype/StillImage" />
        <dc:title></dc:title>
      </cc:Work>
    </rdf:RDF>
  </metadata>
  <g
     inkscape:label="Layer 1"
     inkscape:groupmode="layer"
     id="layer1"
     transform="translate(66.759893,-263.17482)">
    <path
       inkscape:connector-curvature="0"
       id="path1267"
       d="m -65.337713,263.17482 v 22.83159 h 5.88807 v -10.05878 h 8.6941 v 10.05878 h 5.88807 v -22.83159 h -5.88807 v 8.35676 h -8.6941 v -8.35676 z m 22.71404,0 v 22.83159 h 5.857399 v -8.3721 h 2.714032 l 6.2254,8.3721 h 7.19141 l -7.620752,-9.78278 c 1.451571,-0.70535 2.56581,-1.58957 3.342701,-2.6527 0.78712,-1.06312 1.180679,-2.43802 1.180679,-4.12471 0,-1.22668 -0.255558,-2.2438 -0.76667,-3.05137 -0.500898,-0.81779 -1.180679,-1.48224 -2.039358,-1.99335 -0.84845,-0.51112 -1.75823,-0.84335 -2.729362,-0.99668 -0.971119,-0.15334 -2.131348,-0.23 -3.480699,-0.23 z m 5.857399,4.20138 h 2.131351 c 0.70535,0 1.323801,0.0205 1.855362,0.0613 0.531558,0.0307 0.996677,0.12778 1.395349,0.29134 0.57245,0.23511 0.97623,0.55712 1.211339,0.96601 0.235119,0.40889 0.352682,0.89956 0.352682,1.47201 0,0.64401 -0.0971,1.16024 -0.291341,1.54869 -0.183999,0.37823 -0.480452,0.72578 -0.889341,1.04268 -0.42934,0.32711 -0.960901,0.53667 -1.594689,0.62867 -0.63378,0.092 -1.4209,0.138 -2.361361,0.138 h -1.809351 z m -29.993619,20.59289 v 13.29383 h 3.14273 v -9.1244 l 5.64241,9.1244 h 3.30342 v -13.29383 h -3.14273 v 7.61564 l -4.84795,-7.61564 z m 18.64874,2.95522 c -1.76774,0 -3.16059,0.4849 -4.17838,1.45509 -1.01184,0.96422 -1.5177,2.27392 -1.5177,3.92856 0,1.67252 0.53579,2.96095 1.60715,3.86565 1.07135,0.9047 2.61287,1.35702 4.62464,1.35702 0.77972,0 1.4911,-0.0655 2.13392,-0.19647 0.64281,-0.13094 1.32727,-0.34214 2.05341,-0.63378 v -2.58019 h -0.35714 c -0.36903,0.27975 -0.87189,0.54182 -1.50876,0.78585 -0.63686,0.24403 -1.2947,0.36576 -1.97323,0.36576 -1.07135,0 -1.88385,-0.20821 -2.43738,-0.62484 -0.54759,-0.41664 -0.84525,-1.01762 -0.89286,-1.80328 h 7.35689 v -1.1251 c 0,-1.54751 -0.41074,-2.73185 -1.23211,-3.55322 -0.82138,-0.82732 -2.04761,-1.24105 -3.67845,-1.24105 z m 27.306411,0.0358 c -1.583222,0 -2.833071,0.32128 -3.74968,0.96409 -0.910651,0.63686 -1.365959,1.43738 -1.365959,2.40161 0,0.74995 0.220178,1.37786 0.660619,1.88379 0.44045,0.49996 1.115928,0.86913 2.026579,1.1072 0.333311,0.0893 0.702471,0.16646 1.10721,0.23193 0.410681,0.0595 0.734959,0.11608 0.973039,0.16962 0.499962,0.10118 0.839201,0.20859 1.017763,0.32169 0.178559,0.10713 0.268009,0.28241 0.268009,0.52644 0,0.2738 -0.151982,0.48232 -0.45553,0.62517 -0.303551,0.13689 -0.770509,0.20539 -1.401421,0.20539 -0.482108,0 -0.934739,-0.0479 -1.357329,-0.14311 -0.42259,-0.10118 -0.800409,-0.21992 -1.133721,-0.35682 -0.386879,-0.15476 -0.68753,-0.29775 -0.901808,-0.4287 -0.208312,-0.1369 -0.392891,-0.26194 -0.553601,-0.37504 h -0.294532 v 2.6428 c 0.440452,0.20237 1.023803,0.38696 1.749941,0.55361 0.726141,0.16666 1.535642,0.2498 2.428441,0.2498 1.61299,0 2.883779,-0.31528 3.812289,-0.9462 0.92851,-0.63686 1.392801,-1.47331 1.392801,-2.50895 0,-0.70829 -0.202541,-1.29729 -0.607272,-1.7675 -0.404738,-0.47617 -1.029658,-0.82438 -1.874837,-1.04459 -0.380931,-0.0952 -0.761741,-0.17272 -1.142672,-0.23224 -0.374978,-0.0655 -0.726178,-0.13099 -1.053539,-0.19646 -0.595202,-0.12499 -0.973331,-0.25005 -1.134041,-0.37504 -0.1607,-0.12499 -0.240859,-0.30657 -0.240859,-0.54465 0,-0.2619 0.175599,-0.46411 0.52677,-0.60696 0.357111,-0.14285 0.79447,-0.21434 1.312288,-0.21434 0.624962,0 1.240901,0.1041 1.848012,0.31241 0.61305,0.20237 1.157808,0.46743 1.633968,0.79479 h 0.276641 v -2.53547 c -0.386869,-0.1726 -0.92533,-0.33355 -1.61576,-0.48236 -0.68448,-0.15474 -1.401861,-0.23191 -2.151809,-0.23191 z m -22.552701,0.27664 3.080119,10.02619 h 3.455141 l 2.00869,-6.75855 2.04447,6.75855 h 3.410752 l 3.106949,-10.02619 h -3.30341 l -1.68733,6.9103 -2.035839,-6.9103 h -2.847883 l -2.142858,6.9103 -1.71415,-6.9103 z m -5.01246,1.69627 c 0.66662,0 1.15752,0.16961 1.47297,0.50888 0.31546,0.33927 0.48209,0.84512 0.49994,1.5177 h -4.16944 c 0.0476,-0.70829 0.27078,-1.22313 0.66957,-1.54454 0.39878,-0.32141 0.90795,-0.48204 1.52696,-0.48204 z"
       style="font-style:normal;font-variant:normal;font-weight:bold;font-stretch:normal;font-size:192px;line-height:1.25;font-family:sans-serif;-inkscape-font-specification:'sans-serif, Bold';font-variant-ligatures:normal;font-variant-caps:normal;font-variant-numeric:normal;font-feature-settings:normal;text-align:start;letter-spacing:0px;word-spacing:0px;writing-mode:lr-tb;text-anchor:start;fill:#006871;fill-opacity:1;stroke:none;stroke-width:0.16355738" />
  </g>
</svg>
