<?xml version="1.0" encoding="UTF-8" standalone="no"?>
<!-- Created with Inkscape (http://www.inkscape.org/) -->

<svg
   xmlns:dc="http://purl.org/dc/elements/1.1/"
   xmlns:cc="http://creativecommons.org/ns#"
   xmlns:rdf="http://www.w3.org/1999/02/22-rdf-syntax-ns#"
   xmlns:svg="http://www.w3.org/2000/svg"
   xmlns="http://www.w3.org/2000/svg"
   xmlns:sodipodi="http://sodipodi.sourceforge.net/DTD/sodipodi-0.dtd"
   xmlns:inkscape="http://www.inkscape.org/namespaces/inkscape"
   width="55.159939mm"
   height="51.856152mm"
   viewBox="0 0 55.159939 51.856151"
   version="1.1"
   id="svg1961"
   inkscape:version="0.92.3 (2405546, 2018-03-11)"
   sodipodi:docname="plus_green.svg">
  <defs
     id="defs1955" />
  <sodipodi:namedview
     id="base"
     pagecolor="#ffffff"
     bordercolor="#666666"
     borderopacity="1.0"
     inkscape:pageopacity="0.0"
     inkscape:pageshadow="2"
     inkscape:zoom="0.35"
     inkscape:cx="-400.94983"
     inkscape:cy="932.41259"
     inkscape:document-units="mm"
     inkscape:current-layer="layer1"
     showgrid="false"
     inkscape:window-width="1920"
     inkscape:window-height="1017"
     inkscape:window-x="1358"
     inkscape:window-y="-8"
     inkscape:window-maximized="1" />
  <metadata
     id="metadata1958">
    <rdf:RDF>
      <cc:Work
         rdf:about="">
        <dc:format>image/svg+xml</dc:format>
        <dc:type
           rdf:resource="http://purl.org/dc/dcmitype/StillImage" />
        <dc:title></dc:title>
      </cc:Work>
    </rdf:RDF>
  </metadata>
  <g
     inkscape:label="Layer 1"
     inkscape:groupmode="layer"
     id="layer1"
     transform="translate(-151.3543,-343.67801)">
    <path
       inkscape:connector-curvature="0"
       id="path1233"
       d="m 152.20752,343.67801 v 23.76726 h 5.48084 v -10.4709 h 8.09278 v 10.4709 h 5.48097 v -23.76726 h -5.48097 v 8.69932 h -8.09278 v -8.69932 z m 24.49265,0 v 23.76726 h 5.45224 v -8.7153 h 2.52636 l 5.79489,8.7153 h 6.69403 l -7.09378,-10.18363 c 1.35119,-0.73425 2.38842,-1.6548 3.11158,-2.76148 0.73268,-1.10671 1.09899,-2.53798 1.09899,-4.2938 0,-1.27694 -0.23778,-2.33568 -0.71354,-3.17633 -0.46626,-0.85131 -1.09908,-1.54305 -1.8984,-2.07512 -0.78977,-0.53206 -1.63656,-0.87774 -2.54054,-1.03736 -0.90395,-0.15956 -1.98389,-0.23954 -3.23992,-0.23954 z m 5.45224,4.37365 h 1.98394 c 0.65657,0 1.23234,0.0212 1.72712,0.0639 0.49482,0.0319 0.92766,0.13287 1.29875,0.30313 0.53288,0.24475 0.90877,0.57999 1.12762,1.00563 0.2189,0.42565 0.32837,0.93642 0.32837,1.53231 0,0.67041 -0.0904,1.20779 -0.27116,1.61216 -0.17128,0.39373 -0.44724,0.75561 -0.82784,1.08548 -0.39967,0.34052 -0.89453,0.55872 -1.48447,0.65438 -0.58998,0.0957 -1.32258,0.1437 -2.19801,0.1437 h -1.68432 z m 2.68839,20.10717 -2.44872,12.52377 h 2.46239 l 2.44859,-12.52377 z m -5.5638,3.23549 c -0.47612,0 -0.9114,0.10479 -1.30591,0.31406 -0.38995,0.20927 -0.81633,0.50167 -1.27885,0.87728 l 0.18362,-0.94178 h -2.46213 l -2.41466,12.35471 h 2.46226 l 0.73449,-3.76673 c 0.27661,0.19853 0.58505,0.35144 0.92513,0.4588 0.34463,0.11264 0.72094,0.16906 1.12904,0.16906 0.6439,0 1.22438,-0.16643 1.74131,-0.49911 0.52147,-0.33267 0.98844,-0.79692 1.40108,-1.39252 0.39452,-0.5634 0.70517,-1.234 0.93191,-2.01204 0.23123,-0.7834 0.34681,-1.59091 0.34681,-2.42259 0,-0.98195 -0.20623,-1.74924 -0.61886,-2.30191 -0.41266,-0.55804 -1.00439,-0.83723 -1.77524,-0.83723 z m 22.75188,0 c -1.31503,0 -2.35799,0.29525 -3.12887,0.88547 -0.77086,0.58487 -1.15621,1.38711 -1.15621,2.4066 0,0.60096 0.19037,1.10256 0.57128,1.505 0.38543,0.40243 1.09743,0.74583 2.13584,1.03021 0.61216,0.16634 1.01574,0.30589 1.21071,0.41862 0.19501,0.11269 0.29233,0.27628 0.29233,0.49091 0,0.27902 -0.13822,0.49373 -0.41484,0.64398 -0.27207,0.15029 -0.68245,0.22536 -1.23112,0.22536 -0.36729,0 -0.70967,-0.043 -1.02708,-0.12887 -0.31741,-0.0912 -0.59627,-0.19845 -0.83658,-0.32186 -0.28116,-0.13415 -0.49878,-0.26295 -0.65295,-0.38636 -0.14964,-0.12341 -0.27446,-0.23611 -0.37414,-0.33811 h -0.22445 l -0.46921,2.3824 c 0.32648,0.19318 0.79571,0.36219 1.40787,0.50705 0.61216,0.14493 1.24475,0.2173 1.89772,0.2173 1.32861,0 2.38287,-0.28972 3.16282,-0.86922 0.77992,-0.58486 1.16987,-1.38169 1.16987,-2.39046 0,-0.67608 -0.21306,-1.20185 -0.63931,-1.57744 -0.42168,-0.37561 -1.11338,-0.6869 -2.07472,-0.93371 -0.51694,-0.13416 -0.89546,-0.26295 -1.1358,-0.38637 -0.24033,-0.12878 -0.36048,-0.31113 -0.36048,-0.54723 0,-0.30584 0.13824,-0.53122 0.41484,-0.6761 0.28114,-0.15016 0.68247,-0.22536 1.20395,-0.22536 0.48065,0 0.94777,0.0939 1.40122,0.28167 0.45799,0.18244 0.84794,0.42116 1.16988,0.71629 h 0.2108 l 0.44905,-2.28579 c -0.26755,-0.1556 -0.68698,-0.30046 -1.2583,-0.43461 -0.57138,-0.13956 -1.14279,-0.20937 -1.71412,-0.20937 z m -13.17503,0.24956 -1.14959,5.88359 c -0.0409,0.20925 -0.0702,0.40253 -0.0883,0.5796 -0.0186,0.1717 -0.0272,0.35945 -0.0272,0.56335 0,0.74584 0.19275,1.30922 0.57817,1.69019 0.38998,0.38097 0.92038,0.57141 1.59148,0.57141 0.21312,0 0.42854,-0.024 0.6462,-0.0723 0.21766,-0.0429 0.45808,-0.12884 0.72109,-0.25761 0.20856,-0.0966 0.42856,-0.22539 0.65985,-0.38637 0.2358,-0.16634 0.4761,-0.3433 0.72096,-0.53109 l -0.1974,0.99795 h 2.46238 l 1.76834,-9.03872 h -2.46212 l -1.25155,6.40675 c -0.30382,0.19318 -0.58723,0.34068 -0.85023,0.44267 -0.25848,0.10192 -0.4875,0.15294 -0.68702,0.15294 -0.40358,0 -0.67782,-0.0778 -0.82292,-0.23343 -0.1452,-0.16098 -0.2177,-0.41844 -0.2177,-0.77258 0,-0.1717 0.0156,-0.38104 0.0475,-0.62786 0.0362,-0.24681 0.0886,-0.54191 0.15658,-0.88534 l 0.87727,-4.48314 z m -11.01215,1.88342 c 0.46704,0 0.79136,0.13139 0.97273,0.3943 0.18142,0.25755 0.27205,0.63049 0.27205,1.11877 0,0.53121 -0.0523,1.02499 -0.15644,1.48108 -0.10429,0.45072 -0.25393,0.84509 -0.44892,1.18314 -0.19498,0.3434 -0.45113,0.61977 -0.76856,0.82903 -0.31741,0.2093 -0.68246,0.31379 -1.0951,0.31379 -0.20405,0 -0.40361,-0.0186 -0.59859,-0.0563 -0.19046,-0.0429 -0.35831,-0.1018 -0.5034,-0.17699 l 0.88429,-4.54751 c 0.25847,-0.16097 0.50337,-0.28972 0.73463,-0.38636 0.23125,-0.10201 0.46696,-0.15293 0.70731,-0.15293 z m -26.4874,11.53883 v 3.35514 h 55.15994 v -3.35514 z m 0,7.11289 v 3.35514 h 55.15994 v -3.35514 z"
       style="fill:#006871;fill-opacity:1;stroke:none;stroke-width:1.84622109;stroke-linecap:round;stroke-linejoin:round;stroke-miterlimit:4;stroke-dasharray:none;stroke-opacity:1" />
  </g>
</svg>
