<?xml version="1.0" encoding="UTF-8" standalone="no"?>
<!-- Created with Inkscape (http://www.inkscape.org/) -->

<svg
   xmlns:dc="http://purl.org/dc/elements/1.1/"
   xmlns:cc="http://creativecommons.org/ns#"
   xmlns:rdf="http://www.w3.org/1999/02/22-rdf-syntax-ns#"
   xmlns:svg="http://www.w3.org/2000/svg"
   xmlns="http://www.w3.org/2000/svg"
   xmlns:sodipodi="http://sodipodi.sourceforge.net/DTD/sodipodi-0.dtd"
   xmlns:inkscape="http://www.inkscape.org/namespaces/inkscape"
   width="47.637264mm"
   height="52.995613mm"
   viewBox="0 0 47.637264 52.995613"
   version="1.1"
   id="svg1961"
   inkscape:version="0.92.3 (2405546, 2018-03-11)"
   sodipodi:docname="safety_green.svg">
  <defs
     id="defs1955" />
  <sodipodi:namedview
     id="base"
     pagecolor="#ffffff"
     bordercolor="#666666"
     borderopacity="1.0"
     inkscape:pageopacity="0.0"
     inkscape:pageshadow="2"
     inkscape:zoom="0.35"
     inkscape:cx="-545.21235"
     inkscape:cy="558.27606"
     inkscape:document-units="mm"
     inkscape:current-layer="layer1"
     showgrid="false"
     inkscape:window-width="1920"
     inkscape:window-height="1017"
     inkscape:window-x="1358"
     inkscape:window-y="-8"
     inkscape:window-maximized="1" />
  <metadata
     id="metadata1958">
    <rdf:RDF>
      <cc:Work
         rdf:about="">
        <dc:format>image/svg+xml</dc:format>
        <dc:type
           rdf:resource="http://purl.org/dc/dcmitype/StillImage" />
        <dc:title></dc:title>
      </cc:Work>
    </rdf:RDF>
  </metadata>
  <g
     inkscape:label="Layer 1"
     inkscape:groupmode="layer"
     id="layer1"
     transform="translate(-189.52376,-243.54826)">
    <path
       style="fill:#006871;fill-opacity:1;stroke-width:0.05971198"
       d="m 191.19233,296.50157 c -0.78592,-0.11811 -1.23054,-0.38181 -1.4704,-0.87206 -0.25663,-0.52454 -0.26257,-1.15156 -0.0262,-2.76671 0.24396,-1.66711 0.69793,-4.24314 1.07862,-6.12048 0.26053,-1.28483 0.33645,-1.56118 0.54489,-1.98363 0.27146,-0.55015 0.75995,-1.06191 1.27875,-1.33967 0.16289,-0.0872 1.45159,-0.51262 2.86378,-0.94538 2.57053,-0.78772 4.82846,-1.49301 7.14954,-2.23322 0.77668,-0.24769 1.33945,-0.39483 1.51011,-0.39483 0.42883,0 0.68261,0.1713 1.1693,0.7893 0.57633,0.73183 0.8719,1.04373 1.45202,1.53224 1.99257,1.67793 4.3815,2.48396 7.04424,2.37675 2.91049,-0.11719 5.42545,-1.36033 7.322,-3.61928 0.62604,-0.74567 0.84678,-0.92695 1.22762,-1.00818 0.39568,-0.0844 0.71445,-0.007 3.00013,0.72716 2.5405,0.81614 3.88384,1.23595 7.29573,2.27991 0.60756,0.1859 1.26225,0.42124 1.45487,0.52296 0.65609,0.34648 1.15665,0.90942 1.4163,1.5928 0.0629,0.16555 0.20624,0.818 0.31854,1.44987 0.1123,0.63188 0.38224,2.10278 0.59986,3.26866 0.6395,3.42613 0.76397,4.24999 0.7352,4.86652 -0.0446,0.95624 -0.40576,1.47779 -1.22388,1.76744 l -0.40488,0.14334 -22.00383,0.008 c -12.10213,0.005 -22.15165,-0.0143 -22.33228,-0.0414 z M 212.725,282.5322 c -1.46427,-0.18166 -2.72306,-0.74364 -4.39058,-1.96015 -2.48301,-1.81145 -4.08079,-3.87502 -5.10511,-6.59339 -0.23712,-0.62929 -0.30543,-0.74659 -0.66065,-1.13453 -1.01392,-1.10732 -1.50925,-2.24417 -1.85359,-4.25425 -0.17908,-1.04536 -0.27884,-2.42735 -0.193,-2.6736 0.0662,-0.18971 0.31815,-0.34186 0.56625,-0.34186 0.17431,0 0.35103,0.10774 0.80678,0.49184 0.56206,0.47369 -0.49377,0.4337 11.45039,0.4337 h 10.65857 l 0.33722,-0.13634 c 0.18545,-0.075 0.45416,-0.23789 0.5971,-0.36199 0.14296,-0.12411 0.32637,-0.271 0.40757,-0.32643 0.18338,-0.12516 0.60638,-0.13078 0.83779,-0.0111 0.29554,0.15284 0.30789,0.34258 0.11937,1.83393 -0.3636,2.87632 -0.81431,4.0755 -2.02088,5.37679 -0.26727,0.28825 -0.44703,0.54424 -0.51666,0.73575 -0.84827,2.33339 -1.80191,3.87896 -3.34622,5.42325 -1.66188,1.6619 -3.99605,3.06888 -5.64079,3.40015 -0.58179,0.11718 -1.53381,0.16273 -2.05356,0.0983 z m -9.8388,-17.71278 c -0.3646,-0.32381 -0.9004,-0.59021 -1.36395,-0.67815 -0.20655,-0.0392 -0.79285,-0.0479 -1.58211,-0.0234 -1.39848,0.0433 -1.6731,0.005 -1.88355,-0.26154 -0.12592,-0.15956 -0.12791,-0.19458 -0.10116,-1.775 0.0299,-1.76293 0.065,-1.99279 0.41322,-2.70008 0.10165,-0.20649 0.31427,-0.52336 0.47249,-0.70416 0.17527,-0.20029 0.29901,-0.40436 0.31673,-0.5223 0.016,-0.10647 0.0719,-0.49344 0.12419,-0.85994 0.46183,-3.23494 2.02122,-6.23194 4.48634,-8.62229 0.59312,-0.57514 1.86378,-1.64011 1.90532,-1.59691 0.01,0.01 0.16978,0.73005 0.35617,1.60035 0.60598,2.82945 1.01863,4.45222 1.53364,6.03091 0.32535,0.99733 0.88326,2.47041 0.92125,2.43242 0.0129,-0.0129 -0.24485,-1.90216 -0.57258,-4.19853 -0.6204,-4.34704 -0.7545,-5.61864 -0.69872,-6.62517 0.0896,-1.61747 0.69741,-2.039 3.66074,-2.53899 1.29839,-0.21907 2.59256,-0.28301 3.66549,-0.1811 1.59524,0.15152 3.54406,0.65981 4.20026,1.0955 0.64323,0.42706 0.85492,1.00644 0.79062,2.16374 -0.10638,1.91511 -0.19845,2.64732 -1.01732,8.09097 -0.20242,1.34561 -0.28633,2.1369 -0.23536,2.21937 0.0533,0.0862 0.27966,-0.49216 0.74005,-1.89095 0.6248,-1.89827 1.10463,-3.7939 1.66772,-6.58855 0.13458,-0.66796 0.27218,-1.26582 0.30577,-1.32859 0.0755,-0.14099 0.28084,-0.14684 0.4765,-0.0135 0.61664,0.42006 2.1948,1.95507 2.87406,2.79545 1.57459,1.94816 2.64978,4.40617 3.09513,7.07588 0.13244,0.79385 0.2907,1.19538 0.7762,1.96923 0.13349,0.21278 0.31583,0.6024 0.40519,0.86582 0.16165,0.47646 0.1625,0.48761 0.16079,2.13601 -0.002,1.63714 -0.003,1.65866 -0.13589,1.79135 -0.13205,0.13216 -0.16416,0.1348 -1.99866,0.16418 -2.10382,0.0337 -2.06026,0.0247 -2.47439,0.50923 -0.13974,0.16346 -0.32833,0.30717 -0.46876,0.35721 -0.19792,0.0705 -1.83273,0.0841 -10.36908,0.0863 l -10.13411,0.002 z"
       id="path1257"
       inkscape:connector-curvature="0" />
  </g>
</svg>
