<?xml version="1.0" encoding="UTF-8" standalone="no"?>
<!-- Created with Inkscape (http://www.inkscape.org/) -->

<svg
   xmlns:dc="http://purl.org/dc/elements/1.1/"
   xmlns:cc="http://creativecommons.org/ns#"
   xmlns:rdf="http://www.w3.org/1999/02/22-rdf-syntax-ns#"
   xmlns:svg="http://www.w3.org/2000/svg"
   xmlns="http://www.w3.org/2000/svg"
   xmlns:sodipodi="http://sodipodi.sourceforge.net/DTD/sodipodi-0.dtd"
   xmlns:inkscape="http://www.inkscape.org/namespaces/inkscape"
   width="56.970264mm"
   height="26.786213mm"
   viewBox="0 0 56.970264 26.786213"
   version="1.1"
   id="svg1961"
   inkscape:version="0.92.3 (2405546, 2018-03-11)"
   sodipodi:docname="sap_green.svg">
  <defs
     id="defs1955" />
  <sodipodi:namedview
     id="base"
     pagecolor="#ffffff"
     bordercolor="#666666"
     borderopacity="1.0"
     inkscape:pageopacity="0.0"
     inkscape:pageshadow="2"
     inkscape:zoom="2.8"
     inkscape:cx="225.87298"
     inkscape:cy="39.125677"
     inkscape:document-units="mm"
     inkscape:current-layer="layer1"
     showgrid="false"
     inkscape:window-width="1920"
     inkscape:window-height="1017"
     inkscape:window-x="1358"
     inkscape:window-y="-8"
     inkscape:window-maximized="1" />
  <metadata
     id="metadata1958">
    <rdf:RDF>
      <cc:Work
         rdf:about="">
        <dc:format>image/svg+xml</dc:format>
        <dc:type
           rdf:resource="http://purl.org/dc/dcmitype/StillImage" />
        <dc:title></dc:title>
      </cc:Work>
    </rdf:RDF>
  </metadata>
  <g
     inkscape:label="Layer 1"
     inkscape:groupmode="layer"
     id="layer1"
     transform="translate(110.9349,-253.39762)">
    <g
       id="g1265"
       style="font-style:normal;font-variant:normal;font-weight:bold;font-stretch:normal;font-size:192px;line-height:1.25;font-family:sans-serif;-inkscape-font-specification:'sans-serif, Bold';font-variant-ligatures:normal;font-variant-caps:normal;font-variant-numeric:normal;font-feature-settings:normal;text-align:start;letter-spacing:0px;word-spacing:0px;writing-mode:lr-tb;text-anchor:start;fill:#006871;fill-opacity:1;stroke:none"
       transform="matrix(0.14128676,0,0,0.16034853,-53.926926,185.64588)"
       aria-label="SAP">
      <path
         inkscape:connector-curvature="0"
         id="path1263"
         transform="matrix(0.35778142,0,0,0.31524944,-258.12295,297.39668)"
         d="m -149.05273,434.31445 c -51.18349,0 -93.1088,13.08416 -125.77539,39.25391 -32.49191,25.9715 -48.73829,59.57531 -48.73829,100.8125 0,30.72963 7.1639,56.50346 21.48829,77.32031 14.49907,20.6186 38.16848,36.97476 71.00976,49.06836 14.32439,5.35291 29.60952,9.81421 45.85547,13.38281 16.42064,3.37035 31.96686,7.03684 46.64062,11.00196 13.97502,3.76686 24.54484,9.22021 31.70704,16.35742 7.336877,6.93895 11.005855,15.26594 11.005855,24.98047 0,10.50755 -2.533667,18.43616 -7.599605,23.78906 -4.89126,5.3529 -11.18093,9.81421 -18.86719,13.38281 -6.28876,2.77558 -14.40999,4.75773 -24.36719,5.94727 -9.9572,1.18953 -17.99335,1.78515 -24.10742,1.78515 -23.75752,0 -48.5642,-5.05497 -74.41797,-15.16601 -25.67909,-10.11104 -48.91139,-24.58368 -69.69922,-43.41797 h -11.00586 v 106.16602 c 20.96252,9.91278 43.40959,18.1392 67.3418,24.68164 24.1069,6.34418 52.3195,9.51757 84.63672,9.51757 55.90005,0 100.095983,-13.58115 132.587888,-40.74218 4.855034,-4.06624 9.339196,-8.31685 13.472656,-12.74219 l -14.792968,45.45312 H 58.728516 L 85.716797,795.63477 H 230.35742 l 26.99024,89.51171 h 70.625 33.40039 67.2207 V 740.91602 h 62.625 c 28.47409,0 52.23053,-4.46131 71.27148,-13.38282 19.21565,-8.9215 36.59733,-22.10428 52.14454,-39.55078 11.35469,-12.88662 20.08905,-28.74774 26.20312,-47.58203 6.11407,-19.03255 9.17188,-38.46154 9.17188,-58.28711 0,-25.57498 -4.19312,-47.48118 -12.57813,-65.7207 -8.21032,-18.23953 -20.17655,-33.20917 -35.89844,-44.90625 -13.10157,-9.71453 -28.21068,-16.95085 -45.33008,-21.70899 -16.94469,-4.95639 -37.8213,-7.43359 -62.62695,-7.43359 H 327.97266 V 782.52344 L 217.25586,442.34375 H 101.43945 L 7.1035156,732.19141 C 5.2256563,707.90516 -1.7421391,687.70614 -13.84375,671.62695 c -14.149701,-19.2308 -36.161613,-34.39768 -66.033203,-45.5 -15.197827,-5.55116 -29.434677,-9.91384 -42.710937,-13.08593 -13.10158,-3.1721 -26.81428,-6.44216 -41.13867,-9.8125 -21.83596,-5.15465 -36.68398,-10.80525 -44.54492,-16.95118 -7.86095,-6.34418 -11.79102,-15.36541 -11.79102,-27.0625 0,-7.73197 2.44468,-14.57186 7.33594,-20.51953 4.89125,-6.14592 10.74382,-10.70585 17.55664,-13.67969 7.68626,-3.5686 15.63343,-5.94718 23.84375,-7.13671 8.38501,-1.38779 16.77124,-2.08203 25.15625,-2.08203 23.75752,0 46.989821,4.85773 69.699217,14.57226 22.884084,9.51627 42.188267,21.41114 57.910156,35.68555 H -7.8183594 V 464.05273 C -26.160564,455.52774 -47.907477,448.48866 -73.0625,442.9375 c -24.980336,-5.74942 -50.31115,-8.62305 -75.99023,-8.62305 z m 577.64648,90.70117 h 17.29297 c 16.59533,0 29.87093,0.29782 39.82812,0.89258 9.9572,0.39651 20.17695,2.97429 30.65821,7.73242 7.86094,3.56862 14.76179,9.91148 20.70117,19.03126 5.93938,8.9215 8.9082,19.62707 8.9082,32.11718 0,12.68837 -1.48343,23.49451 -4.45312,32.41602 -2.79501,8.72325 -7.42523,16.25738 -13.88868,22.60156 -7.51155,7.13721 -16.85709,11.89437 -28.0371,14.27344 -11.00533,2.37907 -25.06811,3.56836 -42.1875,3.56836 h -28.82227 z m -270.55664,30.63086 47.95117,158.80274 h -95.90234 z"
         style="fill:#006871;fill-opacity:1;stroke-width:2.97758341" />
    </g>
  </g>
</svg>
